<?xml version="1.0" encoding="UTF-8" standalone="no"?>
<svg
   xmlns:dc="http://purl.org/dc/elements/1.1/"
   xmlns:cc="http://creativecommons.org/ns#"
   xmlns:rdf="http://www.w3.org/1999/02/22-rdf-syntax-ns#"
   xmlns:svg="http://www.w3.org/2000/svg"
   xmlns="http://www.w3.org/2000/svg"
   xmlns:sodipodi="http://sodipodi.sourceforge.net/DTD/sodipodi-0.dtd"
   xmlns:inkscape="http://www.inkscape.org/namespaces/inkscape"
   version="1.1"
   id="Layer_1"
   x="0px"
   y="0px"
   width="18px"
   height="18px"
   viewBox="0 0 18 18"
   enable-background="new 0 0 18 18"
   xml:space="preserve"
   sodipodi:docname="Xor.svg"
   inkscape:version="0.92.4 (5da689c313, 2019-01-14)"><metadata
   id="metadata8"><rdf:RDF><cc:Work
       rdf:about=""><dc:format>image/svg+xml</dc:format><dc:type
         rdf:resource="http://purl.org/dc/dcmitype/StillImage" /><dc:title></dc:title></cc:Work></rdf:RDF></metadata><defs
   id="defs6" /><sodipodi:namedview
   pagecolor="#ffffff"
   bordercolor="#666666"
   borderopacity="1"
   objecttolerance="10"
   gridtolerance="10"
   guidetolerance="10"
   inkscape:pageopacity="0"
   inkscape:pageshadow="2"
   inkscape:window-width="1920"
   inkscape:window-height="1018"
   id="namedview4"
   showgrid="false"
   inkscape:zoom="13.111111"
   inkscape:cx="-15.788136"
   inkscape:cy="8.9999998"
   inkscape:window-x="-8"
   inkscape:window-y="-8"
   inkscape:window-maximized="1"
   inkscape:current-layer="Layer_1" />  
<path
   stroke-dashoffset=""
   d="M 8.7260062,0.9503564 0.69268727,17.832105"
   id="svg_1"
   class=""
   inkscape:connector-curvature="0"
   style="opacity:1;fill:#4a90d6;fill-opacity:1;fill-rule:nonzero;stroke:#222222;stroke-width:1.14231205;stroke-linecap:butt;stroke-linejoin:round;stroke-dasharray:none;stroke-opacity:1" /><path
   stroke-dashoffset=""
   d="M 8.7234032,0.94808443 17.013835,17.771579"
   id="svg_4"
   class=""
   inkscape:connector-curvature="0"
   style="opacity:1;fill:#4a90d6;fill-opacity:1;fill-rule:nonzero;stroke:#222222;stroke-width:1.14805472;stroke-linecap:butt;stroke-linejoin:round;stroke-dasharray:none;stroke-opacity:1"
   sodipodi:nodetypes="cc" /><path
   id="svg_13"
   style="opacity:1;fill:#ffffff;fill-opacity:1;fill-rule:nonzero;stroke:#242424;stroke-width:1.0951035;stroke-linecap:butt;stroke-linejoin:round;stroke-dasharray:none;stroke-opacity:1"
   d="m 3.5238815,13.161127 c 0.01122,0.05456 0.015503,0.103028 0.032494,0.162594 0.4729647,1.657668 2.2795563,3.041578 5.3980512,3.077908 0.9599336,0.01118 1.8404893,-0.156913 2.6157593,-0.409738 -0.101942,-0.01679 -0.209364,-0.03767 -0.389927,-0.08617 0.03081,0.03884 0.05882,0.07997 0.09342,0.115441 0.01301,0.0041 0.05213,0.0087 0.03859,0.01138 -0.227449,0.04488 -0.543347,0.02088 -0.779854,0.01626 -0.248757,-0.0036 -0.496548,-0.0018 -0.745329,-0.0017 -0.2571886,-3.53e-4 -0.5145394,-7.5e-5 -0.7717311,0 -0.1226471,2.9e-5 -0.2451174,7e-6 -0.3675867,0 -0.031724,0.01783 -0.078401,0.01166 -0.1299756,0 -0.091357,-6e-6 0.3515175,0.137968 0.2600396,0.137966 -0.2321375,4e-6 -0.2725048,-0.02668 -0.4671001,-0.12032 -0.080554,0.0098 -0.8403154,-0.0062 -0.9499472,-0.01161 0.039939,0.05664 0.2344937,-0.01617 0.3182583,0.0037 -0.1635551,-0.0082 -0.32397,-0.02427 -0.4813153,-0.07967 -0.0053,-0.0019 0.011448,-0.01136 0.00613,-0.01301 -0.020016,-0.006 -0.012748,-0.003 -0.030466,-0.0082 -0.2311538,0.01558 -0.482848,0.03171 -0.5706741,-0.0065 -0.078984,-0.03439 -0.1431531,-0.08546 -0.2071489,-0.13658 -0.00624,0.0022 -0.1023065,-0.03066 -0.1401294,-0.06016 -0.013258,-0.01033 -0.019787,-0.02537 -0.030466,-0.0374 -0.080283,-0.04062 -0.1439122,-0.08986 -0.207149,-0.139831 -0.030331,-0.01478 -0.052874,-0.01958 -0.083268,-0.03577 -0.037849,0.147102 -0.1214242,0.03822 -0.2030874,-0.128449 -0.011178,-0.0094 -0.028251,-0.01465 -0.038587,-0.02439 -0.031069,-0.02928 -0.039273,-0.06884 -0.052801,-0.105686 -0.057397,-0.01961 -0.1165819,-0.03602 -0.1685628,-0.06341 -0.1936574,-0.102048 -0.3457539,-0.282475 -0.4447599,-0.443883 -0.012145,-0.0198 0.044639,0.02617 0.067015,0.03903 C 4.8685657,14.599737 4.9065748,14.646588 4.695722,14.396688 4.5912445,14.27286 4.5059888,14.137868 4.3870299,14.022721 4.2917734,13.930521 4.1848658,13.846127 4.0864608,13.756066 3.9543109,13.635122 3.8251078,13.510621 3.6945031,13.388604 3.6101645,13.309814 3.4223986,13.037619 3.3736255,12.962607 Z m 2.207555,2.250304 c 0.058874,0.0493 0.1302522,0.08965 0.2030874,0.128448 0.00135,-0.0054 0.0026,-0.01558 0.00406,-0.02114 -0.038618,-0.04178 -0.068856,-0.09125 -0.091389,-0.147961 l -0.073109,-0.02764 c 0.021867,0.0048 0.085139,0.02295 0.064988,0.01464 -0.051262,-0.02116 -0.1028679,-0.04078 -0.1563773,-0.05853 0.023884,0.05735 0.019798,0.05311 0.048736,0.11219 z m 0.4935019,0.30405 c 0.045595,0.02307 0.082924,0.0483 0.1320063,0.07317 -0.054122,-0.04527 -0.1077799,-0.09154 -0.1624695,-0.136579 -0.00988,-0.004 -0.020235,-0.0087 -0.030466,-0.01301 0.019996,0.02576 0.039263,0.052 0.060922,0.07642 z m 0.1705925,0.09756 c 0.00114,-3.91e-4 0.032151,0.01555 0.024373,0.01138 -0.022335,-0.01196 -0.036986,-0.02139 -0.058895,-0.03252 0.01019,0.0085 0.024165,0.01286 0.034522,0.02114 z M 14.82269,13.907885 c -0.163795,0.535947 -1.126356,0.949023 -1.707012,1.353962 0.766195,-0.34942 -0.03016,-0.100304 0.755481,-0.422744 -0.0068,0.01991 -0.515688,-0.130437 -0.07315,0.03415 -0.01714,0.0085 -0.0043,0.01569 0,0 0.03681,-0.126149 0.02226,-0.280303 0.134037,-0.373967 0.08957,-0.07505 0.208117,-0.118351 0.331033,-0.157716 0.03151,-0.01514 0.03238,-0.02552 0.07515,-0.04227 0.03484,-0.01365 0.07071,-0.02711 0.105606,-0.04065 -0.04361,-0.07969 -0.08885,-0.15883 -0.125914,-0.24064 -0.0053,-0.01167 0.004,-0.02509 0.0061,-0.0374 0.0081,0.003 0.126696,0.162655 0.123878,0.156086 0.05483,0.07968 0.392468,-0.199501 0.37476,-0.228811 z m -0.378824,0.350757 c -0.0073,0.0078 -0.01333,0.01775 -0.02031,0.02602 0.0096,-0.0032 0.01878,-0.0067 0.02843,-0.0098 -0.0029,-0.0053 -0.0052,-0.01091 -0.0081,-0.01626 z m -0.02031,0.02602 c -0.05399,0.01865 -0.105649,0.03936 -0.160438,0.05691 -0.240461,0.11555 -0.253497,0.14515 -0.05687,0.199991 0.03303,-0.121828 0.150695,-0.17801 0.217303,-0.256898 z m -1.307879,0.97719 c -0.05654,-0.02233 -0.124163,-0.05081 -0.180747,-0.07317 -0.0546,0.150204 -1.226116,0.736749 -1.427702,0.684521 -0.01661,0.01458 1.025289,-0.526719 1.00731,-0.512175 -0.114328,0.09253 -0.236146,0.178698 -0.341186,0.278036 -0.07621,0.07207 -0.450754,0.263707 -0.487408,0.318685 0.404176,-0.163831 1.115829,-0.476994 1.429732,-0.695904 z m 1.33225,-1.125151 c -0.04185,-0.04657 -0.01075,0.01469 0.03249,0.09756 0.0073,-0.0069 0.01483,-0.01135 0.02233,-0.01788 -0.01926,-0.02607 0.04449,0.05715 0.02235,0.03251 z m 0.04468,0.102434 c -0.0028,7.91e-4 -0.0054,0.0022 -0.0081,0.0032 0.0032,0.0062 0.0048,0.0115 0.0081,0.01788 0.01097,-0.0036 0.02189,-0.0073 0.03249,-0.01138 -0.0022,-0.0032 -0.0038,-0.0066 -0.0061,-0.0098 -0.01389,6.99e-4 -0.01785,-0.0024 -0.0264,0 z m -2.420799,1.279654 c 0.78084,0.06754 0.204728,0.03652 0.0853,0.03089 0.164004,0.114199 -0.07033,-0.04761 -0.0853,-0.03089 0.50471,0.347431 -0.07161,-0.0013 0.0041,0.03902 0.06885,0.03668 -2.5197144,0.774711 -2.5832673,0.686148 0.8516123,-0.30569 2.4575613,-0.206757 2.5792063,-0.72517 z"
   inkscape:connector-curvature="0"
   sodipodi:nodetypes="ccscccccccccccccccccccccccccccccccccccccccccccccccccccccccccccccccccccccccccccccccccccccccccccccccccccccccc" /><path
   stroke-dashoffset=""
   d="m 7.0254352,3.9937611 v 0"
   id="svg_3"
   inkscape:connector-curvature="0"
   style="opacity:1;fill:#ffffff;fill-opacity:1;fill-rule:nonzero;stroke:#ffffff;stroke-width:0.82530004;stroke-linecap:butt;stroke-linejoin:round;stroke-dasharray:none;stroke-opacity:1"
   sodipodi:nodetypes="cc" /><path
   stroke-dashoffset=""
   d="M -0.2498478,3.3647451 V 3.0502381"
   id="svg_12"
   inkscape:connector-curvature="0"
   style="opacity:1;fill:#ffffff;fill-opacity:1;fill-rule:nonzero;stroke:#ffffff;stroke-width:0.82530004;stroke-linecap:butt;stroke-linejoin:round;stroke-dasharray:none;stroke-opacity:1" /></svg>